<svg xmlns="http://www.w3.org/2000/svg" version="1.1" xmlns:xlink="http://www.w3.org/1999/xlink" xmlns:svgjs="http://svgjs.dev/svgjs" width="1500" height="1382" viewBox="0 0 1500 1382"><g transform="matrix(1,0,0,1,1.15339533690576,0.5595141700404156)"><svg viewBox="0 0 268 247" data-background-color="#ffffff" preserveAspectRatio="xMidYMid meet" height="1382" width="1500" xmlns="http://www.w3.org/2000/svg" xmlns:xlink="http://www.w3.org/1999/xlink"><g id="tight-bounds" transform="matrix(1,0,0,1,-0.20607330019382175,-0.09999999999999432)"><svg viewBox="0 0 268.41214660038764 247.2" height="247.2" width="268.41214660038764"><g><svg viewBox="0 0 395.52 364.2627401119961" height="247.2" width="268.41214660038764"><g transform="matrix(1,0,0,1,0,243.09363585627386)"><svg viewBox="0 0 395.52 121.16910425572223" height="121.16910425572223" width="395.52"><g id="textblocktransform"><svg viewBox="0 0 395.52 121.16910425572223" height="121.16910425572223" width="395.52" id="textblock"><g><svg viewBox="0 0 395.52 121.16910425572223" height="121.16910425572223" width="395.52"><g transform="matrix(1,0,0,1,0,0)"><svg width="395.52" viewBox="3.04875 -41.26 168.14030660006398 51.51" height="121.16910425572223" data-palette-color="#1c1678"><path d="M7.5 0L7.5 0Q5.25 0 4.7-0.27 4.15-0.54 4.1-1.66L4.1-1.66 3.05-39.23Q3.03-40.09 3.33-40.52 3.64-40.94 4.6-41.1 5.57-41.26 7.5-41.26L7.5-41.26Q9.42-41.26 10.39-41.1 11.35-40.94 11.66-40.52 11.96-40.09 11.94-39.23L11.94-39.23 10.86-1.66Q10.84-0.54 10.29-0.27 9.74 0 7.5 0ZM21.9 0L21.9 0Q19.85 0 19.3-0.24 18.75-0.49 18.72-1.39L18.72-1.39 17.94-27.56Q17.92-28.61 18.54-28.98 19.16-29.35 21.65-29.35L21.65-29.35Q24.14-29.35 24.77-28.98 25.39-28.61 25.36-27.56L25.36-27.56 25.34-26.07Q26.71-27.64 28.27-28.64 29.83-29.64 32.03-29.64L32.03-29.64Q34.1-29.64 35.73-28.61 37.35-27.59 38.18-25.68L38.18-25.68Q39.62-27.39 41.25-28.52 42.87-29.64 45.21-29.64L45.21-29.64Q48.19-29.64 50.18-27.54 52.17-25.44 52.05-21.73L52.05-21.73 51.46-1.39Q51.44-0.49 50.88-0.24 50.31 0 48.26 0L48.26 0Q46.21 0 45.66-0.24 45.11-0.49 45.09-1.39L45.09-1.39 44.53-21.02Q44.48-22.95 43.71-23.61 42.94-24.27 41.75-24.27L41.75-24.27Q40.82-24.27 40.1-23.74 39.38-23.22 38.86-22.49L38.86-22.49Q38.86-22.12 38.86-21.73L38.86-21.73 38.28-1.39Q38.25-0.49 37.69-0.24 37.13 0 35.08 0L35.08 0Q33.03 0 32.48-0.24 31.93-0.49 31.91-1.39L31.91-1.39 31.35-21.02Q31.3-22.95 30.53-23.61 29.76-24.27 28.56-24.27L28.56-24.27Q27.66-24.27 26.94-23.75 26.22-23.24 25.71-22.53L25.71-22.53 25.1-1.39Q25.07-0.49 24.51-0.24 23.95 0 21.9 0ZM64.4 0.29L64.4 0.29Q60.98 0.29 59.25-1.48 57.51-3.25 57.47-5.79L57.47-5.79 57.44-7.1Q57.42-8.94 58.44-10.18 59.47-11.43 61.04-12.26 62.62-13.09 64.2-13.6L64.2-13.6Q65.77-14.11 67.49-14.48 69.21-14.84 70.82-15.11L70.82-15.11 70.6-23.19Q70.53-25.83 67.96-25.83L67.96-25.83Q66.72-25.83 65.93-25.34 65.13-24.85 65.08-23.22L65.08-23.22 64.91-17.68Q64.89-16.77 64.25-16.53 63.62-16.28 61.23-16.28L61.23-16.28Q59-16.28 58.41-16.53 57.81-16.77 57.76-17.68L57.76-17.68 57.56-22.88Q57.49-24.83 58.54-26.14 59.59-27.44 61.25-28.21 62.91-28.98 64.74-29.31 66.57-29.64 68.04-29.64L68.04-29.64Q70.84-29.64 73.21-28.81 75.58-27.98 77-26.4 78.41-24.83 78.34-22.58L78.34-22.58 77.58-1.39Q77.56-0.49 77-0.24 76.44 0 74.38 0L74.38 0Q72.5 0 72-0.24 71.5-0.49 71.45-1.39L71.45-1.39 71.43-2.25Q70.11-1.27 68.33-0.49 66.55 0.29 64.4 0.29ZM64.13-7.47L64.13-6.52Q64.13-5.03 64.94-4.39 65.74-3.76 66.89-3.76L66.89-3.76Q68.31-3.76 69.33-4.24 70.36-4.71 71.09-5.32L71.09-5.32 70.92-11.6Q68.38-11.13 66.82-10.45L66.82-10.45Q65.62-9.91 64.88-9.23 64.13-8.54 64.13-7.47L64.13-7.47ZM91.18 0.29L91.18 0.29Q88.03 0.29 86.19-1.55 84.34-3.39 84.2-7.81L84.2-7.81 83.76-21.56Q83.66-25.1 85.73-27.37 87.81-29.64 91.2-29.64L91.2-29.64Q93.25-29.64 94.72-28.71 96.18-27.78 97.01-26.9L97.01-26.9 96.99-27.56Q96.97-28.61 97.61-28.98 98.26-29.35 100.75-29.35L100.75-29.35Q103.24-29.35 103.86-28.98 104.48-28.61 104.46-27.56L104.46-27.56 103.83 3.2Q103.75 7.18 101.04 8.72 98.33 10.25 93.69 10.25L93.69 10.25Q91.98 10.25 90.98 10.16 89.98 10.06 89.35 9.96L89.35 9.96Q88.76 9.84 88.6 9.46 88.44 9.08 88.44 7.91L88.44 7.91Q88.44 6.69 88.62 6.18 88.79 5.66 89.35 5.71L89.35 5.71Q89.93 5.74 90.85 5.86 91.76 5.98 93.38 5.98L93.38 5.98Q95.5 5.98 96.39 5.24 97.28 4.49 97.23 2.64L97.23 2.64 97.14-1.78Q96.09-0.98 94.61-0.34 93.13 0.29 91.18 0.29ZM91.3-21.56L90.93-7.81Q90.89-6.03 91.78-5.05 92.67-4.08 94.23-4.08L94.23-4.08Q95.09-4.08 95.81-4.35 96.53-4.61 97.06-5L97.06-5 96.6-23.71Q96.06-24.07 95.39-24.33 94.72-24.58 94.06-24.58L94.06-24.58Q92.99-24.58 92.17-23.91 91.35-23.24 91.3-21.56L91.3-21.56ZM114.27 0L114.27 0Q112.22 0 111.67-0.24 111.12-0.49 111.1-1.39L111.1-1.39 110.32-27.56Q110.29-28.61 110.95-28.98 111.61-29.35 114.27-29.35L114.27-29.35Q116.93-29.35 117.6-28.98 118.28-28.61 118.23-27.56L118.23-27.56 117.47-1.39Q117.45-0.49 116.88-0.24 116.32 0 114.27 0ZM114.27-33.2L114.27-33.2Q111.9-33.2 111.28-33.45 110.66-33.69 110.61-34.59L110.61-34.59 110.32-39.36Q110.24-40.41 110.93-40.77 111.61-41.14 114.27-41.14L114.27-41.14Q116.93-41.14 117.6-40.77 118.28-40.41 118.23-39.36L118.23-39.36 117.96-34.59Q117.91-33.69 117.29-33.45 116.66-33.2 114.27-33.2ZM128.09 0L128.09 0Q126.04 0 125.49-0.24 124.94-0.49 124.91-1.39L124.91-1.39 124.13-27.56Q124.11-28.61 124.73-28.98 125.35-29.35 127.84-29.35L127.84-29.35Q130.33-29.35 130.96-28.98 131.58-28.61 131.55-27.56L131.55-27.56 131.53-26.07Q132.9-27.64 134.46-28.64 136.02-29.64 138.22-29.64L138.22-29.64Q141.2-29.64 143.19-27.54 145.18-25.44 145.06-21.73L145.06-21.73 144.47-1.39Q144.45-0.49 143.88-0.24 143.32 0 141.27 0L141.27 0Q139.22 0 138.67-0.24 138.12-0.49 138.1-1.39L138.1-1.39 137.54-21.02Q137.49-22.95 136.72-23.61 135.95-24.27 134.75-24.27L134.75-24.27Q133.85-24.27 133.13-23.75 132.41-23.24 131.9-22.53L131.9-22.53 131.29-1.39Q131.26-0.49 130.7-0.24 130.14 0 128.09 0ZM160.92 0.29L160.92 0.29Q158.46 0.29 156.22-0.35 153.99-1 152.54-2.54 151.08-4.08 150.99-6.74L150.99-6.74 150.42-22.22Q150.33-24.83 151.86-26.46 153.4-28.1 155.87-28.87 158.33-29.64 161.04-29.64L161.04-29.64Q163.63-29.64 166-28.87 168.37-28.1 169.83-26.46 171.3-24.83 171.18-22.22L171.18-22.22 170.81-13.21Q170.79-12.3 170.16-12.06 169.54-11.82 167.34-11.82L167.34-11.82 157.85-11.82 157.68-6.54Q157.63-4.69 158.48-3.96 159.34-3.22 160.9-3.22L160.9-3.22Q162.49-3.22 163.21-3.91 163.93-4.59 163.93-6.32L163.93-6.32 163.93-7.08Q163.93-8.01 164.52-8.34 165.12-8.67 167.29-8.67L167.29-8.67Q169.47-8.67 170.04-8.35 170.61-8.03 170.61-7.1L170.61-7.1 170.61-6.03Q170.61-3.47 169.21-2.1 167.81-0.73 165.59-0.22 163.36 0.29 160.92 0.29ZM158.16-22.63L158.16-22.63 157.94-15.48 163.93-15.48 163.68-22.63Q163.61-24.71 162.88-25.27 162.14-25.83 161.04-25.83L161.04-25.83Q159.85-25.83 159.03-25.27 158.21-24.71 158.16-22.63Z" opacity="1" transform="matrix(1,0,0,1,0,0)" fill="#1c1678" class="wordmark-text-0" data-fill-palette-color="primary" id="text-0"></path></svg></g></svg></g></svg></g></svg></g><g transform="matrix(1,0,0,1,90.5157408,0)"><svg viewBox="0 0 214.48851839999998 214.48851839999998" height="214.48851839999998" width="214.48851839999998"><g><svg></svg></g><g id="icon-0"><svg viewBox="0 0 214.48851839999998 214.48851839999998" height="214.48851839999998" width="214.48851839999998"><g><rect width="195.02567136" height="195.02567136" x="9.731423519999993" y="9.731423519999993" fill="#1c1678" data-fill-palette-color="accent"></rect><rect width="195.02567136" height="195.02567136" x="-5.329070518200751e-15" y="19.462847039999993" fill="#1c1678" opacity="0.5" data-fill-palette-color="accent"></rect></g><g transform="matrix(1,0,0,1,31.557391382741116,27.80406719999999)"><svg viewBox="0 0 151.37373563451774 158.880384" height="158.880384" width="151.37373563451774"><g><svg xmlns="http://www.w3.org/2000/svg" xmlns:xlink="http://www.w3.org/1999/xlink" version="1.1" x="0" y="0" viewBox="18 17.974999999999998 61 64.025" style="enable-background:new 0 0 100 100;" xml:space="preserve" height="158.880384" width="151.37373563451774" class="icon-dxe-0" data-fill-palette-color="quaternary" id="dxe-0"><path d="M46.5 79.5C56.1 79.5 64.9 74.7 70.2 66.8 71.5 82 72.9 82 74 82 75.2 82 76.7 82 78 63.9 78.6 55.4 78.9 46.8 79 44V43.5C79 39.9 79 35 74 35S69 39.9 69 43.5V44.9C68.3 44.8 67.5 44.8 66.8 44.7 63.4 44.5 59.6 44.2 56.7 41.3S53.5 34.6 53.2 31.2C52.8 26.9 52.5 22.5 46.5 22.5 30.8 22.5 18 35.3 18 51S30.8 79.5 46.5 79.5M74 79.4C72.6 75.4 71.5 58.7 71.1 49H76.8C76.5 58.7 75.4 75.4 74 79.4M76.9 47H71V45H77C77 45.6 77 46.3 76.9 47M74 37C76.3 37 77 38.3 77 43H71C71 38.3 71.7 37 74 37M46.5 24.5C50.5 24.5 50.8 26.7 51.2 31.3 51.5 34.9 51.9 39.3 55.3 42.7S63.1 46.5 66.6 46.7C67.5 46.8 68.3 46.8 69 46.9 69.1 50.8 69.4 57.1 69.9 63.3 65.3 72 56.3 77.4 46.5 77.4 31.9 77.5 20 65.6 20 51S31.9 24.5 46.5 24.5" fill="#755bb4" data-fill-palette-color="quaternary"></path><path d="M38 41C40.8 41 43 38.8 43 36S40.8 31 38 31 33 33.2 33 36 35.2 41 38 41M38 33C39.7 33 41 34.3 41 36S39.7 39 38 39 35 37.7 35 36 36.3 33 38 33" fill="#755bb4" data-fill-palette-color="quaternary"></path><path d="M35 47C35 44.2 32.8 42 30 42S25 44.2 25 47 27.2 52 30 52 35 49.8 35 47M27 47C27 45.3 28.3 44 30 44S33 45.3 33 47 31.7 50 30 50 27 48.7 27 47" fill="#755bb4" data-fill-palette-color="quaternary"></path><path d="M33 56C30.2 56 28 58.2 28 61S30.2 66 33 66 38 63.8 38 61 35.8 56 33 56M33 64C31.3 64 30 62.7 30 61S31.3 58 33 58 36 59.3 36 61 34.7 64 33 64" fill="#755bb4" data-fill-palette-color="quaternary"></path><path d="M39 70C39 72.8 41.2 75 44 75S49 72.8 49 70 46.8 65 44 65 39 67.2 39 70M44 67C45.7 67 47 68.3 47 70S45.7 73 44 73 41 71.7 41 70 42.3 67 44 67" fill="#755bb4" data-fill-palette-color="quaternary"></path><path d="M71.5 23.3C70.4 24.3 69 25.6 69 28 69 30.8 71.2 33 74 33S79 30.8 79 28C79 25.7 79 21.5 74.6 18.2 74.3 17.9 73.8 17.9 73.5 18.2S73 18.9 73.1 19.3C73.5 21.4 72.7 22.2 71.5 23.3M72.8 24.8C73.7 24 74.7 23 75.1 21.4 77 23.7 77 26.3 77 28S75.7 31 74 31 71 29.7 71 28C71 26.4 71.8 25.7 72.8 24.8" fill="#755bb4" data-fill-palette-color="quaternary"></path></svg></g></svg></g></svg></g></svg></g><g></g></svg></g><defs></defs></svg><rect width="268.41214660038764" height="247.2" fill="none" stroke="none" visibility="hidden"></rect></g></svg></g></svg>